<svg width="32" height="30" viewBox="0 0 32 30" fill="none" xmlns="http://www.w3.org/2000/svg">
<mask id="mask0_0_85" style="mask-type:alpha" maskUnits="userSpaceOnUse" x="0" y="0" width="32" height="30">
<rect width="32" height="30" fill="#D9D9D9"/>
</mask>
<g mask="url(#mask0_0_85)">
<path d="M5.33332 25C4.59999 25 3.97243 24.7554 3.45066 24.2663C2.92799 23.7763 2.66666 23.1875 2.66666 22.5V7.5C2.66666 6.8125 2.92799 6.22417 3.45066 5.735C3.97243 5.245 4.59999 5 5.33332 5H26.6667C27.4 5 28.028 5.245 28.5507 5.735C29.0724 6.22417 29.3333 6.8125 29.3333 7.5V22.5C29.3333 23.1875 29.0724 23.7763 28.5507 24.2663C28.028 24.7554 27.4 25 26.6667 25H5.33332ZM16 16.25L5.33332 10V22.5H26.6667V10L16 16.25ZM16 13.75L26.6667 7.5H5.33332L16 13.75ZM5.33332 10V7.5V22.5V10Z" fill="#1C1B1F"/>
</g>
</svg>
